<?xml version="1.0" encoding="utf-8"?>
<!-- Generator: Adobe Illustrator 18.1.0, SVG Export Plug-In . SVG Version: 6.00 Build 0)  -->
<svg version="1.1" id="Layer_1" xmlns="http://www.w3.org/2000/svg" xmlns:xlink="http://www.w3.org/1999/xlink" x="0px" y="0px"
	 viewBox="0 0 1024 768" enable-background="new 0 0 1024 768" xml:space="preserve">
<g>
	<path fill="#FFFFFF" d="M750.3,172.2H327.7L633,59.6c17.7-6.5,34.4-5.6,45.6,1.9c12.1,8.4,14.9,24.2,14.9,35.4v47.5h55.9V96.8
		c0-34.4-14-63.3-38.2-80.1c-26.1-18.6-61.4-21.4-96.8-7.4L256,143.4c-68.9,26.1-111.7,75.4-111.7,140.6h2.8c-1.9,0-2.8,13-2.8,21.4
		v335.1c0,72.6,58.6,127.5,131.3,127.5h474.8c72.6,0,129.4-54.9,129.4-127.5V305.3C879.7,233.7,822.9,172.2,750.3,172.2z
		 M823.9,636.7c0,41.9-33.5,75.4-75.4,75.4H275.5c-41.9,0-75.4-33.5-75.4-75.4V303.5c0-41.9,33.5-75.4,75.4-75.4h472.9
		c41.9,0,75.4,33.5,75.4,75.4V636.7z"/>
	<circle fill="#FFFFFF" cx="745.7" cy="465.5" r="46.5"/>
</g>
</svg>
