<?xml version="1.0" encoding="utf-8"?>
<!-- Generator: Adobe Illustrator 18.1.0, SVG Export Plug-In . SVG Version: 6.00 Build 0)  -->
<svg version="1.1" id="Layer_1" xmlns="http://www.w3.org/2000/svg" xmlns:xlink="http://www.w3.org/1999/xlink" x="0px" y="0px"
	 viewBox="0 0 1024 768" enable-background="new 0 0 1024 768" xml:space="preserve">
<g>
	<path fill="#FFFFFF" d="M740.8,113.5H611.3l73.6-75.4L647.7,0L520.9,126.8v24.8l126.8,126.8l38.1-36.4l-76.3-76.3h133
		c25.7,0,46.1,18.6,46.1,44.3v343.2c0,25.7-20.4,47-46.1,47H574.1v53.2h166.7c55,0.9,99.3-44.3,99.3-99.3V211.1
		C840.1,156.1,795.8,113.5,740.8,113.5z"/>
	<path fill="#FFFFFF" d="M345.3,525.9l78,75.4H285.9c-25.7,0-48.8-17.7-48.8-43.5V214.6c0-25.7,23.1-47.9,48.8-47.9h164.1v-53.2
		H285.9c-55,0-102,45.2-102,101.1v343.2c0,55,47,96.7,102,96.7h134.8l-74.5,75.4l37.2,39L512,642.1v-25.7L382.5,488.6L345.3,525.9z"
		/>
</g>
</svg>
